<svg xmlns="http://www.w3.org/2000/svg" width="157" height="24" viewBox="0 0 157 24" fill="none"><path d="M0 0.79998H9.312V3.99998H3.52V10.24H8.064V13.44H3.52V23.2H0V0.79998Z" fill="#FB7724"></path><path d="M11.64 0.79998H15.16V20H20.952V23.2H11.64V0.79998Z" fill="#FB7724"></path><path d="M28.243 23.52C26.515 23.52 25.1923 23.0293 24.275 22.048C23.3577 21.0666 22.899 19.68 22.899 17.888V6.11198C22.899 4.31998 23.3577 2.93331 24.275 1.95198C25.1923 0.970647 26.515 0.47998 28.243 0.47998C29.971 0.47998 31.2937 0.970647 32.211 1.95198C33.1283 2.93331 33.587 4.31998 33.587 6.11198V17.888C33.587 19.68 33.1283 21.0666 32.211 22.048C31.2937 23.0293 29.971 23.52 28.243 23.52ZM28.243 20.32C29.459 20.32 30.067 19.584 30.067 18.112V5.88798C30.067 4.41598 29.459 3.67998 28.243 3.67998C27.027 3.67998 26.419 4.41598 26.419 5.88798V18.112C26.419 19.584 27.027 20.32 28.243 20.32Z" fill="#FB7724"></path><path d="M36.6075 0.79998H41.8235C43.6368 0.79998 44.9595 1.22665 45.7915 2.07998C46.6235 2.91198 47.0395 4.20265 47.0395 5.95198V7.32798C47.0395 9.65331 46.2715 11.1253 44.7355 11.744V11.808C45.5888 12.064 46.1862 12.5866 46.5275 13.376C46.8902 14.1653 47.0715 15.2213 47.0715 16.544V20.48C47.0715 21.12 47.0928 21.6426 47.1355 22.048C47.1782 22.432 47.2848 22.816 47.4555 23.2H43.8715C43.7435 22.8373 43.6582 22.496 43.6155 22.176C43.5728 21.856 43.5515 21.28 43.5515 20.448V16.352C43.5515 15.328 43.3808 14.6133 43.0395 14.208C42.7195 13.8026 42.1542 13.6 41.3435 13.6H40.1275V23.2H36.6075V0.79998ZM41.4075 10.4C42.1115 10.4 42.6342 10.2186 42.9755 9.85598C43.3382 9.49331 43.5195 8.88531 43.5195 8.03198V6.30398C43.5195 5.49331 43.3702 4.90665 43.0715 4.54398C42.7942 4.18131 42.3462 3.99998 41.7275 3.99998H40.1275V10.4H41.4075Z" fill="#FB7724"></path><path d="M50.1538 0.79998H53.6738V23.2H50.1538V0.79998Z" fill="#FB7724"></path><path d="M59.67 0.79998H64.438L68.086 23.2H64.566L63.926 18.752V18.816H59.926L59.286 23.2H56.022L59.67 0.79998ZM63.51 15.776L61.942 4.70398H61.878L60.342 15.776H63.51Z" fill="#FB7724"></path><path d="M70.4337 0.79998H74.8497L78.2738 14.208H78.3377V0.79998H81.4737V23.2H77.8577L73.6337 6.84798H73.5697V23.2H70.4337V0.79998Z" fill="#FB7724"></path><path d="M89.818 23.52C88.09 23.52 86.7673 23.0293 85.85 22.048C84.9327 21.0666 84.474 19.68 84.474 17.888V6.11198C84.474 4.31998 84.9327 2.93331 85.85 1.95198C86.7673 0.970647 88.09 0.47998 89.818 0.47998C91.546 0.47998 92.8687 0.970647 93.786 1.95198C94.7033 2.93331 95.162 4.31998 95.162 6.11198V17.888C95.162 19.68 94.7033 21.0666 93.786 22.048C92.8687 23.0293 91.546 23.52 89.818 23.52ZM89.818 20.32C91.034 20.32 91.642 19.584 91.642 18.112V5.88798C91.642 4.41598 91.034 3.67998 89.818 3.67998C88.602 3.67998 87.994 4.41598 87.994 5.88798V18.112C87.994 19.584 88.602 20.32 89.818 20.32Z" fill="#FB7724"></path><path d="M108.524 23.52C106.817 23.52 105.526 23.04 104.652 22.08C103.777 21.0986 103.34 19.7013 103.34 17.888V16.608H106.668V18.144C106.668 19.5946 107.276 20.32 108.492 20.32C109.089 20.32 109.537 20.1493 109.836 19.808C110.156 19.4453 110.316 18.8693 110.316 18.08C110.316 17.1413 110.102 16.32 109.675 15.616C109.249 14.8906 108.46 14.0266 107.308 13.024C105.857 11.744 104.844 10.592 104.268 9.56798C103.692 8.52265 103.404 7.34931 103.404 6.04798C103.404 4.27731 103.852 2.91198 104.748 1.95198C105.644 0.970647 106.945 0.47998 108.652 0.47998C110.337 0.47998 111.606 0.970647 112.46 1.95198C113.334 2.91198 113.771 4.29865 113.771 6.11198V7.03998H110.444V5.88798C110.444 5.11998 110.294 4.56531 109.995 4.22398C109.697 3.86131 109.26 3.67998 108.684 3.67998C107.51 3.67998 106.924 4.39465 106.924 5.82398C106.924 6.63465 107.137 7.39198 107.563 8.09598C108.011 8.79998 108.812 9.65331 109.964 10.656C111.436 11.936 112.449 13.0986 113.004 14.144C113.558 15.1893 113.836 16.416 113.836 17.824C113.836 19.6586 113.377 21.0666 112.46 22.048C111.564 23.0293 110.252 23.52 108.524 23.52Z" fill="#FB7724"></path><path d="M116.494 0.79998H120.014V23.2H116.494V0.79998Z" fill="#FB7724"></path><path d="M123.29 0.79998H126.81V20H132.602V23.2H123.29V0.79998Z" fill="#FB7724"></path><path d="M132.533 0.79998H136.085L138.389 18.176H138.453L140.757 0.79998H143.989L140.597 23.2H135.925L132.533 0.79998Z" fill="#FB7724"></path><path d="M148.134 0.79998H152.902L156.55 23.2H153.03L152.39 18.752V18.816H148.39L147.75 23.2H144.486L148.134 0.79998ZM151.974 15.776L150.406 4.70398H150.342L148.806 15.776H151.974Z" fill="#FB7724"></path></svg>